<svg width="525" height="175" viewBox="0 0 525 175" fill="none" xmlns="http://www.w3.org/2000/svg">
<path d="M207.947 70.472C200.907 63.496 196.363 57.928 194.251 54.088C192.843 51.72 192.331 49.864 192.331 48.2C192.331 45.512 193.931 43.656 197.131 43.656C199.179 43.656 200.843 44.552 202.379 45.896C203.595 44.488 204.107 42.76 204.107 40.584C204.107 39.048 203.851 37.576 203.339 36.36H190.219V29.192H238.411V36.36H232.523V69H223.563V54.536C221.835 54.856 219.851 55.048 217.803 55.048C214.283 55.048 210.443 54.344 206.795 52.424C205.835 53.064 204.747 53.704 203.531 54.216C206.475 57.672 210.443 61.384 214.539 65.096L207.947 70.472ZM217.803 47.816C219.787 47.816 221.707 47.624 223.563 47.176V36.36H212.235C212.747 37.896 213.003 39.496 213.003 41.544C213.003 43.72 212.491 45.576 211.659 47.112C213.643 47.624 215.499 47.816 217.803 47.816ZM274.205 36.36V69H265.309V55.176H253.597V56.136C253.597 59.72 251.869 61.256 249.117 61.256C244.829 61.256 239.517 55.624 239.517 51.656C239.517 49.736 240.477 48.008 244.317 48.008H244.637V36.36H237.469V29.192H280.093V36.36H274.205ZM265.309 36.36H253.597V48.008H265.309V36.36ZM291.443 70.856L286.835 65.16L304.819 54.6V36.36H295.347V52.744C295.347 56.52 293.811 58.312 290.931 58.312C286.579 58.312 281.267 52.552 281.267 48.328C281.267 45.896 282.419 44.168 286.323 44.168H286.387V36.36H279.219V29.192H319.667V36.36H313.779V69H304.819V61.832L291.443 70.856ZM287.826 113.36V146H278.866V113.36H273.938V106.192H278.61C277.65 104.4 276.882 102.416 276.882 99.728C276.882 92.624 283.602 88.656 294.994 88.656C313.234 88.656 327.634 96.848 335.058 106.64H325.842C318.546 99.856 308.562 95.888 296.722 95.888C289.554 95.888 285.842 98.064 285.842 101.904C285.842 103.568 286.418 105.04 287.25 106.192H293.714V113.36H287.826ZM301.966 136.72C297.422 136.656 294.222 134.48 294.222 130.512C294.222 127.376 296.526 125.456 299.79 125.456C302.158 125.456 303.95 126.288 305.87 128.016C310.35 126.288 312.846 122.512 312.846 117.84C312.846 114.192 311.31 112.08 308.43 112.08C306.446 112.08 305.294 113.232 305.294 114.768C305.294 116.816 307.15 117.84 310.286 118.224L307.854 123.472C300.622 122.768 297.102 119.44 297.102 114.448C297.102 109.2 300.942 105.552 308.11 105.552C316.814 105.552 321.55 110.928 321.55 118.48C321.55 125.264 318.03 130.32 311.566 133.712C314.446 136.4 317.07 139.408 319.502 142.544L312.078 147.216C309.326 143.12 306.574 139.536 304.078 136.592C303.374 136.656 302.67 136.72 301.966 136.72ZM336.334 113.36V146H327.438V113.36H323.022V106.192H342.222V113.36H336.334ZM387.329 113.36V146H378.369V127.632C375.873 128.336 373.121 128.72 369.921 128.72C366.081 128.72 362.561 128.208 358.593 126.672C354.369 128.784 352.705 130.384 352.705 133.072C352.705 135.888 354.945 137.36 358.529 137.36C358.913 137.36 359.297 137.36 359.617 137.36C359.553 137.104 359.553 136.784 359.553 136.528C359.553 134.032 361.345 131.92 365.057 131.92C369.345 131.92 371.649 134.672 371.649 137.744C371.649 139.728 370.561 141.456 368.513 142.608C369.537 144.72 370.817 146.896 372.417 149.264L365.057 152.272C363.585 149.584 362.369 146.768 361.665 144.336C360.705 144.4 359.681 144.464 358.849 144.464C348.993 144.464 343.681 139.792 343.681 133.264C343.681 128.784 345.665 125.776 351.169 122.832C347.777 120.592 346.049 117.904 346.049 114.448C346.049 109.264 350.145 105.552 358.081 105.552C366.081 105.552 370.241 108.944 370.241 114.512C370.241 117.392 369.089 119.824 366.081 121.872C367.041 121.936 367.873 122 368.769 122C372.097 122 375.745 121.168 378.369 119.76V113.36H373.889V106.192H393.217V113.36H387.329ZM354.497 115.152C354.497 117.072 356.161 118.544 358.208 119.632C360.769 118.224 361.729 116.752 361.729 115.088C361.729 113.424 360.833 112.144 358.145 112.144C355.905 112.144 354.497 113.168 354.497 115.152ZM406.138 113.36V146H397.178V113.36H392.25V106.192H412.026V113.36H406.138Z" fill="url(#paint0_linear_615_461)"/>
<defs>
<linearGradient id="paint0_linear_615_461" x1="262.5" y1="0" x2="262.5" y2="175" gradientUnits="userSpaceOnUse">
<stop offset="0.5" stop-color="#1662F4"/>
<stop offset="1" stop-color="#FA8921"/>
</linearGradient>
</defs>
</svg>
