<svg width="435" height="18" viewBox="0 0 435 18" fill="none" xmlns="http://www.w3.org/2000/svg">
<path d="M0.199531 0.751999H9.84753V2.912H3.05553V7.592H8.64753L8.28753 9.752H3.05553V17H0.199531V0.751999ZM17.4613 0.535999C18.6613 0.535999 19.6853 0.727999 20.5333 1.112C21.3813 1.496 22.0773 2.04 22.6213 2.744C23.1813 3.448 23.5893 4.312 23.8453 5.336C24.1013 6.344 24.2293 7.48 24.2293 8.744C24.2293 9.992 24.0853 11.136 23.7973 12.176C23.5253 13.2 23.0933 14.08 22.5013 14.816C21.9253 15.552 21.1893 16.128 20.2933 16.544C19.4133 16.944 18.3653 17.144 17.1493 17.144C15.9493 17.144 14.9173 16.968 14.0533 16.616C13.2053 16.248 12.5013 15.72 11.9413 15.032C11.3973 14.328 10.9973 13.48 10.7413 12.488C10.4853 11.496 10.3573 10.36 10.3573 9.08C10.3573 7.832 10.4933 6.688 10.7653 5.648C11.0533 4.592 11.4853 3.688 12.0613 2.936C12.6533 2.168 13.3973 1.576 14.2933 1.16C15.1893 0.743999 16.2453 0.535999 17.4613 0.535999ZM17.1253 2.744C16.4213 2.744 15.8373 2.904 15.3733 3.224C14.9093 3.528 14.5333 3.952 14.2453 4.496C13.9573 5.04 13.7493 5.68 13.6213 6.416C13.5093 7.152 13.4533 7.952 13.4533 8.816C13.4533 9.632 13.5093 10.408 13.6213 11.144C13.7333 11.88 13.9333 12.528 14.2213 13.088C14.5253 13.648 14.9333 14.096 15.4453 14.432C15.9733 14.768 16.6533 14.936 17.4853 14.936C18.1733 14.936 18.7493 14.784 19.2133 14.48C19.6933 14.176 20.0773 13.76 20.3653 13.232C20.6533 12.704 20.8533 12.08 20.9653 11.36C21.0933 10.624 21.1573 9.832 21.1573 8.984C21.1573 8.168 21.1013 7.384 20.9893 6.632C20.8773 5.88 20.6693 5.216 20.3653 4.64C20.0773 4.064 19.6693 3.608 19.1413 3.272C18.6293 2.92 17.9573 2.744 17.1253 2.744ZM29.5806 0.751999V10.808C29.5806 12.296 29.8926 13.36 30.5166 14C31.1406 14.624 31.9886 14.936 33.0606 14.936C34.1486 14.936 34.9486 14.576 35.4606 13.856C35.9886 13.12 36.2526 12.104 36.2526 10.808V0.751999H39.1086V11.024C39.1086 11.856 38.9966 12.64 38.7726 13.376C38.5646 14.112 38.2126 14.76 37.7166 15.32C37.2206 15.88 36.5646 16.328 35.7486 16.664C34.9326 16.984 33.9326 17.144 32.7486 17.144C31.6126 17.144 30.6606 16.984 29.8926 16.664C29.1406 16.328 28.5246 15.88 28.0446 15.32C27.5806 14.76 27.2446 14.112 27.0366 13.376C26.8446 12.64 26.7486 11.856 26.7486 11.024V0.751999H29.5806ZM51.823 0.751999H54.679V17.024H52.303L46.831 8.48C46.527 8.016 46.191 7.496 45.823 6.92C45.471 6.328 45.135 5.784 44.815 5.288C44.863 5.8 44.903 6.336 44.935 6.896C44.983 7.456 45.007 7.992 45.007 8.504L45.079 17H42.223V0.704H44.455L50.095 9.152C50.415 9.616 50.735 10.112 51.055 10.64C51.391 11.152 51.719 11.648 52.039 12.128C52.007 11.616 51.975 11.104 51.943 10.592C51.911 10.064 51.895 9.616 51.895 9.248L51.823 0.751999ZM58.0433 0.751999C58.1553 0.751999 58.3953 0.751999 58.7633 0.751999C59.1313 0.735999 59.5473 0.727999 60.0113 0.727999C60.4753 0.727999 60.9553 0.727999 61.4513 0.727999C61.9473 0.711999 62.3793 0.704 62.7473 0.704C65.4673 0.704 67.4833 1.384 68.7953 2.744C70.1073 4.088 70.7633 6.096 70.7633 8.768C70.7633 11.44 70.0913 13.488 68.7473 14.912C67.4033 16.336 65.2993 17.048 62.4353 17.048C61.9393 17.048 61.4513 17.04 60.9713 17.024C60.5073 17.024 60.0753 17.024 59.6753 17.024C59.2913 17.024 58.9553 17.016 58.6673 17C58.3793 17 58.1713 17 58.0433 17V0.751999ZM62.4113 2.84C62.0433 2.84 61.7313 2.848 61.4753 2.864C61.2353 2.864 61.0433 2.864 60.8993 2.864V14.888C61.0753 14.904 61.2993 14.912 61.5713 14.912C61.8593 14.912 62.2673 14.912 62.7953 14.912C64.4753 14.912 65.7073 14.424 66.4913 13.448C67.2753 12.456 67.6673 10.984 67.6673 9.032C67.6673 8.104 67.5713 7.264 67.3793 6.512C67.2033 5.744 66.8993 5.088 66.4673 4.544C66.0513 4 65.5073 3.584 64.8353 3.296C64.1793 2.992 63.3713 2.84 62.4113 2.84ZM76.9442 0.751999H79.2002L85.4642 17H82.4162L80.9282 12.752H75.0722L73.5362 17H70.7042L76.9442 0.751999ZM80.1842 10.64C79.6722 9.2 79.2322 7.896 78.8642 6.728C78.4962 5.544 78.2162 4.616 78.0242 3.944C77.8002 4.664 77.5042 5.608 77.1362 6.776C76.7682 7.944 76.3362 9.232 75.8402 10.64H80.1842ZM95.4938 0.751999L95.1338 2.912H91.1018V17H88.2698V2.912H84.1658V0.751999H95.4938ZM97.4417 0.751999H100.298V17H97.4417V0.751999ZM110.157 0.535999C111.357 0.535999 112.381 0.727999 113.229 1.112C114.077 1.496 114.773 2.04 115.317 2.744C115.877 3.448 116.285 4.312 116.541 5.336C116.797 6.344 116.925 7.48 116.925 8.744C116.925 9.992 116.781 11.136 116.493 12.176C116.221 13.2 115.789 14.08 115.197 14.816C114.621 15.552 113.885 16.128 112.989 16.544C112.109 16.944 111.061 17.144 109.845 17.144C108.645 17.144 107.613 16.968 106.749 16.616C105.901 16.248 105.197 15.72 104.637 15.032C104.093 14.328 103.693 13.48 103.437 12.488C103.181 11.496 103.053 10.36 103.053 9.08C103.053 7.832 103.189 6.688 103.461 5.648C103.749 4.592 104.181 3.688 104.757 2.936C105.349 2.168 106.093 1.576 106.989 1.16C107.885 0.743999 108.941 0.535999 110.157 0.535999ZM109.821 2.744C109.117 2.744 108.533 2.904 108.069 3.224C107.605 3.528 107.229 3.952 106.941 4.496C106.653 5.04 106.445 5.68 106.317 6.416C106.205 7.152 106.149 7.952 106.149 8.816C106.149 9.632 106.205 10.408 106.317 11.144C106.429 11.88 106.629 12.528 106.917 13.088C107.221 13.648 107.629 14.096 108.141 14.432C108.669 14.768 109.349 14.936 110.181 14.936C110.869 14.936 111.445 14.784 111.909 14.48C112.389 14.176 112.773 13.76 113.061 13.232C113.349 12.704 113.549 12.08 113.661 11.36C113.789 10.624 113.853 9.832 113.853 8.984C113.853 8.168 113.797 7.384 113.685 6.632C113.573 5.88 113.365 5.216 113.061 4.64C112.773 4.064 112.365 3.608 111.837 3.272C111.325 2.92 110.653 2.744 109.821 2.744ZM129.284 0.751999H132.14V17.024H129.764L124.292 8.48C123.988 8.016 123.652 7.496 123.284 6.92C122.932 6.328 122.596 5.784 122.276 5.288C122.324 5.8 122.364 6.336 122.396 6.896C122.444 7.456 122.468 7.992 122.468 8.504L122.54 17H119.684V0.704H121.916L127.556 9.152C127.876 9.616 128.196 10.112 128.516 10.64C128.852 11.152 129.18 11.648 129.5 12.128C129.468 11.616 129.436 11.104 129.404 10.592C129.372 10.064 129.356 9.616 129.356 9.248L129.284 0.751999ZM139.944 0.751999H142.2L148.464 17H145.416L143.928 12.752H138.072L136.536 17H133.704L139.944 0.751999ZM143.184 10.64C142.672 9.2 142.232 7.896 141.864 6.728C141.496 5.544 141.216 4.616 141.024 3.944C140.8 4.664 140.504 5.608 140.136 6.776C139.768 7.944 139.336 9.232 138.84 10.64H143.184ZM150.035 0.751999H152.891V14.84H158.963V17H150.035V0.751999ZM166.77 0.751999H169.626V14.84H175.698V17H166.77V0.751999ZM177.387 0.751999H180.243V17H177.387V0.751999ZM193.486 0.751999L193.126 2.912H189.094V17H186.262V2.912H182.158V0.751999H193.486ZM195.434 0.751999H205.082V2.912H198.29V7.448H203.882L203.522 9.632H198.29V14.84H205.442V17H195.434V0.751999ZM207.739 0.751999C207.851 0.751999 208.107 0.751999 208.507 0.751999C208.907 0.735999 209.355 0.727999 209.851 0.727999C210.347 0.727999 210.843 0.727999 211.339 0.727999C211.835 0.711999 212.243 0.704 212.563 0.704C214.547 0.704 215.995 1.096 216.907 1.88C217.819 2.648 218.275 3.736 218.275 5.144C218.275 6.072 218.043 6.896 217.579 7.616C217.115 8.336 216.355 8.856 215.299 9.176C215.747 9.432 216.147 9.784 216.499 10.232C216.851 10.68 217.195 11.232 217.531 11.888C217.867 12.528 218.211 13.28 218.563 14.144C218.915 14.992 219.323 15.944 219.787 17H216.691C216.147 15.736 215.667 14.656 215.251 13.76C214.851 12.864 214.459 12.136 214.075 11.576C213.691 11.016 213.275 10.608 212.827 10.352C212.395 10.096 211.883 9.968 211.291 9.968H210.595V17H207.739V0.751999ZM210.595 7.88H212.443C213.339 7.88 214.027 7.68 214.507 7.28C215.003 6.88 215.251 6.288 215.251 5.504C215.251 5.152 215.203 4.808 215.107 4.472C215.011 4.136 214.843 3.84 214.603 3.584C214.379 3.328 214.067 3.128 213.667 2.984C213.283 2.824 212.795 2.744 212.203 2.744H210.595V7.88ZM226.429 0.751999H228.685L234.949 17H231.901L230.413 12.752H224.557L223.021 17H220.189L226.429 0.751999ZM229.669 10.64C229.157 9.2 228.717 7.896 228.349 6.728C227.981 5.544 227.701 4.616 227.509 3.944C227.285 4.664 226.989 5.608 226.621 6.776C226.253 7.944 225.821 9.232 225.325 10.64H229.669ZM244.838 4.016C244.454 3.6 244.046 3.288 243.614 3.08C243.198 2.856 242.71 2.744 242.15 2.744C241.462 2.744 240.878 2.904 240.398 3.224C239.934 3.528 239.558 3.96 239.27 4.52C238.982 5.064 238.774 5.704 238.646 6.44C238.518 7.176 238.454 7.968 238.454 8.816C238.454 9.664 238.51 10.456 238.622 11.192C238.75 11.928 238.958 12.576 239.246 13.136C239.55 13.696 239.95 14.136 240.446 14.456C240.958 14.776 241.598 14.936 242.366 14.936C242.734 14.936 243.086 14.904 243.422 14.84C243.758 14.776 244.062 14.712 244.334 14.648C244.622 14.568 244.854 14.496 245.03 14.432C245.222 14.368 245.342 14.328 245.39 14.312L246.062 16.328L245.75 16.448C245.542 16.528 245.246 16.624 244.862 16.736C244.494 16.832 244.046 16.92 243.518 17C243.006 17.096 242.438 17.144 241.814 17.144C239.67 17.144 238.054 16.464 236.966 15.104C235.894 13.728 235.358 11.72 235.358 9.08C235.358 7.816 235.502 6.664 235.79 5.624C236.078 4.568 236.51 3.664 237.086 2.912C237.678 2.16 238.414 1.576 239.294 1.16C240.19 0.743999 241.238 0.535999 242.438 0.535999C243.398 0.535999 244.182 0.711999 244.79 1.064C245.414 1.416 245.918 1.816 246.302 2.264L244.838 4.016ZM251.833 10.784L246.793 0.751999H249.889L253.297 8.12L256.777 0.751999H259.801L254.689 10.904V17H251.833V10.784ZM272.038 0.751999H274.294L280.558 17H277.51L276.022 12.752H270.166L268.63 17H265.798L272.038 0.751999ZM275.278 10.64C274.766 9.2 274.326 7.896 273.958 6.728C273.59 5.544 273.31 4.616 273.118 3.944C272.894 4.664 272.598 5.608 272.23 6.776C271.862 7.944 271.43 9.232 270.934 10.64H275.278ZM291.729 0.751999H294.585V17.024H292.209L286.737 8.48C286.433 8.016 286.097 7.496 285.729 6.92C285.377 6.328 285.041 5.784 284.721 5.288C284.769 5.8 284.809 6.336 284.841 6.896C284.889 7.456 284.913 7.992 284.913 8.504L284.985 17H282.129V0.704H284.361L290.001 9.152C290.321 9.616 290.641 10.112 290.961 10.64C291.297 11.152 291.625 11.648 291.945 12.128C291.913 11.616 291.881 11.104 291.849 10.592C291.817 10.064 291.801 9.616 291.801 9.248L291.729 0.751999ZM297.95 0.751999C298.062 0.751999 298.302 0.751999 298.67 0.751999C299.038 0.735999 299.454 0.727999 299.918 0.727999C300.382 0.727999 300.862 0.727999 301.358 0.727999C301.854 0.711999 302.286 0.704 302.654 0.704C305.374 0.704 307.39 1.384 308.702 2.744C310.014 4.088 310.67 6.096 310.67 8.768C310.67 11.44 309.998 13.488 308.654 14.912C307.31 16.336 305.206 17.048 302.342 17.048C301.846 17.048 301.358 17.04 300.878 17.024C300.414 17.024 299.982 17.024 299.582 17.024C299.198 17.024 298.862 17.016 298.574 17C298.286 17 298.078 17 297.95 17V0.751999ZM302.318 2.84C301.95 2.84 301.638 2.848 301.382 2.864C301.142 2.864 300.95 2.864 300.806 2.864V14.888C300.982 14.904 301.206 14.912 301.478 14.912C301.766 14.912 302.174 14.912 302.702 14.912C304.382 14.912 305.614 14.424 306.398 13.448C307.182 12.456 307.574 10.984 307.574 9.032C307.574 8.104 307.478 7.264 307.286 6.512C307.11 5.744 306.806 5.088 306.374 4.544C305.958 4 305.414 3.584 304.742 3.296C304.086 2.992 303.278 2.84 302.318 2.84ZM329.089 0.751999H331.945V17.024H329.569L324.097 8.48C323.793 8.016 323.457 7.496 323.089 6.92C322.737 6.328 322.401 5.784 322.081 5.288C322.129 5.8 322.169 6.336 322.201 6.896C322.249 7.456 322.273 7.992 322.273 8.504L322.345 17H319.489V0.704H321.721L327.361 9.152C327.681 9.616 328.001 10.112 328.321 10.64C328.657 11.152 328.985 11.648 329.305 12.128C329.273 11.616 329.241 11.104 329.209 10.592C329.177 10.064 329.161 9.616 329.161 9.248L329.089 0.751999ZM337.901 0.751999V10.808C337.901 12.296 338.213 13.36 338.837 14C339.461 14.624 340.309 14.936 341.381 14.936C342.469 14.936 343.269 14.576 343.781 13.856C344.309 13.12 344.573 12.104 344.573 10.808V0.751999H347.429V11.024C347.429 11.856 347.317 12.64 347.093 13.376C346.885 14.112 346.533 14.76 346.037 15.32C345.541 15.88 344.885 16.328 344.069 16.664C343.253 16.984 342.253 17.144 341.069 17.144C339.933 17.144 338.981 16.984 338.213 16.664C337.461 16.328 336.845 15.88 336.365 15.32C335.901 14.76 335.565 14.112 335.357 13.376C335.165 12.64 335.069 11.856 335.069 11.024V0.751999H337.901ZM359.663 17H357.647L354.935 10.832C354.855 10.656 354.751 10.416 354.623 10.112C354.511 9.808 354.383 9.472 354.239 9.104C354.095 8.736 353.943 8.352 353.783 7.952C353.623 7.536 353.471 7.12 353.327 6.704C353.327 7.12 353.319 7.536 353.303 7.952C353.303 8.352 353.295 8.736 353.279 9.104C353.263 9.456 353.247 9.776 353.231 10.064C353.231 10.336 353.231 10.552 353.231 10.712L352.991 17H350.303L351.263 0.704H353.495L357.599 10.88C357.743 11.248 357.903 11.648 358.079 12.08C358.271 12.512 358.447 12.936 358.607 13.352C358.767 12.936 358.935 12.52 359.111 12.104C359.287 11.672 359.455 11.264 359.615 10.88L363.743 0.704H365.927L366.887 17H364.223L363.959 10.784C363.943 10.384 363.919 9.816 363.887 9.08C363.871 8.328 363.855 7.568 363.839 6.8C363.695 7.2 363.543 7.6 363.383 8C363.239 8.4 363.103 8.776 362.975 9.128C362.847 9.48 362.727 9.8 362.615 10.088C362.503 10.376 362.415 10.6 362.351 10.76L359.663 17ZM369.996 0.751999H379.644V2.912H372.852V7.448H378.444L378.084 9.632H372.852V14.84H380.004V17H369.996V0.751999ZM382.301 0.751999C382.413 0.751999 382.669 0.751999 383.069 0.751999C383.469 0.735999 383.917 0.727999 384.413 0.727999C384.909 0.727999 385.405 0.727999 385.901 0.727999C386.397 0.711999 386.805 0.704 387.125 0.704C389.109 0.704 390.557 1.096 391.469 1.88C392.381 2.648 392.837 3.736 392.837 5.144C392.837 6.072 392.605 6.896 392.141 7.616C391.677 8.336 390.917 8.856 389.861 9.176C390.309 9.432 390.709 9.784 391.061 10.232C391.413 10.68 391.757 11.232 392.093 11.888C392.429 12.528 392.773 13.28 393.125 14.144C393.477 14.992 393.885 15.944 394.349 17H391.253C390.709 15.736 390.229 14.656 389.813 13.76C389.413 12.864 389.021 12.136 388.637 11.576C388.253 11.016 387.837 10.608 387.389 10.352C386.957 10.096 386.445 9.968 385.853 9.968H385.157V17H382.301V0.751999ZM385.157 7.88H387.005C387.901 7.88 388.589 7.68 389.069 7.28C389.565 6.88 389.813 6.288 389.813 5.504C389.813 5.152 389.765 4.808 389.669 4.472C389.573 4.136 389.405 3.84 389.165 3.584C388.941 3.328 388.629 3.128 388.229 2.984C387.845 2.824 387.357 2.744 386.765 2.744H385.157V7.88ZM400.991 0.751999H403.247L409.511 17H406.463L404.975 12.752H399.119L397.583 17H394.751L400.991 0.751999ZM404.231 10.64C403.719 9.2 403.279 7.896 402.911 6.728C402.543 5.544 402.263 4.616 402.071 3.944C401.847 4.664 401.551 5.608 401.183 6.776C400.815 7.944 400.383 9.232 399.887 10.64H404.231ZM419.401 4.016C419.017 3.6 418.609 3.288 418.177 3.08C417.761 2.856 417.273 2.744 416.713 2.744C416.025 2.744 415.441 2.904 414.961 3.224C414.497 3.528 414.121 3.96 413.833 4.52C413.545 5.064 413.337 5.704 413.209 6.44C413.081 7.176 413.017 7.968 413.017 8.816C413.017 9.664 413.073 10.456 413.185 11.192C413.313 11.928 413.521 12.576 413.809 13.136C414.113 13.696 414.513 14.136 415.009 14.456C415.521 14.776 416.161 14.936 416.929 14.936C417.297 14.936 417.649 14.904 417.985 14.84C418.321 14.776 418.625 14.712 418.897 14.648C419.185 14.568 419.417 14.496 419.593 14.432C419.785 14.368 419.905 14.328 419.953 14.312L420.625 16.328L420.313 16.448C420.105 16.528 419.809 16.624 419.425 16.736C419.057 16.832 418.609 16.92 418.081 17C417.569 17.096 417.001 17.144 416.377 17.144C414.233 17.144 412.617 16.464 411.529 15.104C410.457 13.728 409.921 11.72 409.921 9.08C409.921 7.816 410.065 6.664 410.353 5.624C410.641 4.568 411.073 3.664 411.649 2.912C412.241 2.16 412.977 1.576 413.857 1.16C414.753 0.743999 415.801 0.535999 417.001 0.535999C417.961 0.535999 418.745 0.711999 419.353 1.064C419.977 1.416 420.481 1.816 420.865 2.264L419.401 4.016ZM426.395 10.784L421.355 0.751999H424.451L427.859 8.12L431.339 0.751999H434.363L429.251 10.904V17H426.395V10.784Z" fill="url(#paint0_linear_239_4568)"/>
<defs>
<linearGradient id="paint0_linear_239_4568" x1="-26" y1="7.5" x2="465" y2="7.5" gradientUnits="userSpaceOnUse">
<stop offset="0.5" stop-color="#09090B"/>
<stop offset="0.795" stop-color="#09090B" stop-opacity="0.933333"/>
</linearGradient>
</defs>
</svg>
