<svg width="414" height="14" viewBox="0 0 414 14" fill="none" xmlns="http://www.w3.org/2000/svg">
<path d="M7.49805 11.4375V13H0.0761719V11.4375H1.63867V2.45312H0.0761719V0.890625H10.623V4.79688H8.86523V4.01562C8.86523 3.85612 8.85059 3.69173 8.82129 3.52246C8.79525 3.35319 8.75293 3.18555 8.69434 3.01953C8.639 2.85352 8.55762 2.71842 8.4502 2.61426C8.34277 2.50684 8.2207 2.45312 8.08398 2.45312H4.76367V6.75H6.52148V4.99219H8.08398V10.0703H6.52148V8.3125H4.76367V11.4375H7.49805ZM16.1797 0.880859C16.7103 0.757161 17.2669 0.695312 17.8496 0.695312C18.4323 0.695312 18.9873 0.757161 19.5146 0.880859C20.0452 1.0013 20.5238 1.17057 20.9502 1.38867C21.3799 1.60677 21.7754 1.86719 22.1367 2.16992C22.498 2.47266 22.8105 2.80794 23.0742 3.17578C23.3379 3.54036 23.5609 3.92936 23.7432 4.34277C23.9287 4.75293 24.0671 5.17773 24.1582 5.61719C24.2493 6.05339 24.2949 6.49609 24.2949 6.94531C24.2949 7.39453 24.2493 7.83887 24.1582 8.27832C24.0671 8.71452 23.9287 9.13932 23.7432 9.55273C23.5609 9.96289 23.3379 10.3519 23.0742 10.7197C22.8105 11.0843 22.498 11.418 22.1367 11.7207C21.7754 12.0234 21.3799 12.2839 20.9502 12.502C20.5238 12.7201 20.0452 12.8893 19.5146 13.0098C18.9873 13.1335 18.4323 13.1953 17.8496 13.1953C17.2669 13.1953 16.7103 13.1335 16.1797 13.0098C15.6523 12.8893 15.1738 12.7201 14.7441 12.502C14.3177 12.2839 13.9238 12.0234 13.5625 11.7207C13.2012 11.418 12.8887 11.0843 12.625 10.7197C12.3613 10.3519 12.1367 9.96289 11.9512 9.55273C11.7689 9.13932 11.6322 8.71452 11.541 8.27832C11.4499 7.83887 11.4043 7.39453 11.4043 6.94531C11.4043 6.49609 11.4499 6.05339 11.541 5.61719C11.6322 5.17773 11.7689 4.75293 11.9512 4.34277C12.1367 3.92936 12.3613 3.54036 12.625 3.17578C12.8887 2.80794 13.2012 2.47266 13.5625 2.16992C13.9238 1.86719 14.3177 1.60677 14.7441 1.38867C15.1738 1.17057 15.6523 1.0013 16.1797 0.880859ZM18.9238 2.50195C18.6016 2.33919 18.2435 2.25781 17.8496 2.25781C17.4557 2.25781 17.096 2.33919 16.7705 2.50195C16.4482 2.66146 16.1732 2.88281 15.9453 3.16602C15.7207 3.44922 15.5303 3.78939 15.374 4.18652C15.2178 4.5804 15.1022 5.00846 15.0273 5.4707C14.9557 5.93294 14.9199 6.42448 14.9199 6.94531C14.9199 7.59635 14.9818 8.20345 15.1055 8.7666C15.2324 9.3265 15.4147 9.82129 15.6523 10.251C15.89 10.6807 16.196 11.0192 16.5703 11.2666C16.9479 11.5107 17.3743 11.6328 17.8496 11.6328C18.3249 11.6328 18.7497 11.5107 19.124 11.2666C19.5016 11.0192 19.8092 10.6807 20.0469 10.251C20.2845 9.82129 20.4652 9.3265 20.5889 8.7666C20.7158 8.20345 20.7793 7.59635 20.7793 6.94531C20.7793 6.42448 20.7419 5.93294 20.667 5.4707C20.5954 5.00846 20.4814 4.5804 20.3252 4.18652C20.1689 3.78939 19.9769 3.44922 19.749 3.16602C19.5244 2.88281 19.2493 2.66146 18.9238 2.50195ZM32.3027 0.890625H37.3809V2.45312H35.8184V8.89844C35.8184 9.34115 35.7712 9.76595 35.6768 10.1729C35.5824 10.5798 35.4277 10.9688 35.2129 11.3398C35.0013 11.7077 34.7393 12.0283 34.4268 12.3018C34.1175 12.5752 33.7301 12.7933 33.2646 12.9561C32.7992 13.1156 32.2832 13.1953 31.7168 13.1953C30.4863 13.1953 29.4805 13.0212 28.6992 12.6729C27.918 12.3213 27.3467 11.8037 26.9854 11.1201C26.624 10.4333 26.4434 9.5625 26.4434 8.50781V2.45312H24.8809V0.890625H31.1309V2.45312H29.5684V8.50781C29.5684 8.86263 29.5944 9.18978 29.6465 9.48926C29.7018 9.78874 29.7734 10.0443 29.8613 10.2559C29.9492 10.4642 30.0566 10.6514 30.1836 10.8174C30.3105 10.9801 30.4424 11.112 30.5791 11.2129C30.7158 11.3138 30.8623 11.3968 31.0186 11.4619C31.1781 11.527 31.3294 11.5726 31.4727 11.5986C31.6159 11.6214 31.7624 11.6328 31.9121 11.6328C32.293 11.6328 32.6331 11.5645 32.9326 11.4277C33.2354 11.2878 33.4811 11.0957 33.6699 10.8516C33.862 10.6042 34.0068 10.3161 34.1045 9.9873C34.2054 9.65527 34.2559 9.29232 34.2559 8.89844V2.45312H32.3027V0.890625ZM38.5527 0.890625H42.8984L47.9277 6.80859V2.45312H46.3652V0.890625H51.4434V2.45312H49.8809V13H48.709L42.0684 5.1875V11.4375H43.6309V13H38.5527V11.4375H40.1152V2.45312H38.5527V0.890625ZM58.7676 13H52.5176V11.4375H54.0801V2.45312H52.5176V0.890625H58.7676C59.4674 0.890625 60.1283 0.96875 60.75 1.125C61.3717 1.27799 61.9219 1.49284 62.4004 1.76953C62.8822 2.04297 63.3135 2.36849 63.6943 2.74609C64.0785 3.1237 64.3942 3.53711 64.6416 3.98633C64.8923 4.43555 65.0827 4.91081 65.2129 5.41211C65.3431 5.91016 65.4082 6.42122 65.4082 6.94531C65.4082 7.4694 65.3431 7.9821 65.2129 8.4834C65.0827 8.98145 64.8923 9.45508 64.6416 9.9043C64.3942 10.3535 64.0785 10.7669 63.6943 11.1445C63.3135 11.5221 62.8822 11.8493 62.4004 12.126C61.9219 12.3994 61.3717 12.6143 60.75 12.7705C60.1283 12.9235 59.4674 13 58.7676 13ZM58.7676 11.4375C59.2754 11.4375 59.7295 11.3252 60.1299 11.1006C60.5303 10.8727 60.8574 10.557 61.1113 10.1533C61.3685 9.74967 61.5622 9.27767 61.6924 8.7373C61.8258 8.19368 61.8926 7.59635 61.8926 6.94531C61.8926 6.42448 61.8535 5.93945 61.7754 5.49023C61.6973 5.04102 61.5752 4.62923 61.4092 4.25488C61.2432 3.87728 61.0381 3.55664 60.7939 3.29297C60.5531 3.02604 60.2601 2.81934 59.915 2.67285C59.57 2.52637 59.1875 2.45312 58.7676 2.45312H57.2051V11.4375H58.7676ZM70.877 0.890625H73.0254L77.6982 11.4375H78.8848V13H72.6348V11.4375H74.1973L73.5039 9.875H69.0898L68.4404 11.4375H71.4629V13H65.2129V11.4375H66.4873L70.877 0.890625ZM69.7393 8.3125H72.8105L71.5996 5.57812C71.4434 5.22005 71.3197 4.86849 71.2285 4.52344C71.1016 4.97266 70.9844 5.32422 70.877 5.57812L69.7393 8.3125ZM77.6152 0.890625H88.9434V4.79688H87.1855V4.01562C87.1855 3.85612 87.1709 3.69173 87.1416 3.52246C87.1156 3.35319 87.0732 3.18555 87.0146 3.01953C86.9593 2.85352 86.8779 2.71842 86.7705 2.61426C86.6631 2.50684 86.541 2.45312 86.4043 2.45312H84.8418V11.4375H86.4043V13H80.1543V11.4375H81.7168V2.45312H80.1543C80.0176 2.45312 79.8955 2.50684 79.7881 2.61426C79.6807 2.71842 79.5977 2.85352 79.5391 3.01953C79.4837 3.18555 79.4414 3.35319 79.4121 3.52246C79.3861 3.69173 79.373 3.85612 79.373 4.01562V4.79688H77.6152V0.890625ZM90.0176 0.890625H96.2676V2.45312H94.7051V11.4375H96.2676V13H90.0176V11.4375H91.5801V2.45312H90.0176V0.890625ZM101.824 0.880859C102.355 0.757161 102.911 0.695312 103.494 0.695312C104.077 0.695312 104.632 0.757161 105.159 0.880859C105.69 1.0013 106.168 1.17057 106.595 1.38867C107.024 1.60677 107.42 1.86719 107.781 2.16992C108.143 2.47266 108.455 2.80794 108.719 3.17578C108.982 3.54036 109.205 3.92936 109.388 4.34277C109.573 4.75293 109.712 5.17773 109.803 5.61719C109.894 6.05339 109.939 6.49609 109.939 6.94531C109.939 7.39453 109.894 7.83887 109.803 8.27832C109.712 8.71452 109.573 9.13932 109.388 9.55273C109.205 9.96289 108.982 10.3519 108.719 10.7197C108.455 11.0843 108.143 11.418 107.781 11.7207C107.42 12.0234 107.024 12.2839 106.595 12.502C106.168 12.7201 105.69 12.8893 105.159 13.0098C104.632 13.1335 104.077 13.1953 103.494 13.1953C102.911 13.1953 102.355 13.1335 101.824 13.0098C101.297 12.8893 100.818 12.7201 100.389 12.502C99.9622 12.2839 99.5684 12.0234 99.207 11.7207C98.8457 11.418 98.5332 11.0843 98.2695 10.7197C98.0059 10.3519 97.7812 9.96289 97.5957 9.55273C97.4134 9.13932 97.2767 8.71452 97.1855 8.27832C97.0944 7.83887 97.0488 7.39453 97.0488 6.94531C97.0488 6.49609 97.0944 6.05339 97.1855 5.61719C97.2767 5.17773 97.4134 4.75293 97.5957 4.34277C97.7812 3.92936 98.0059 3.54036 98.2695 3.17578C98.5332 2.80794 98.8457 2.47266 99.207 2.16992C99.5684 1.86719 99.9622 1.60677 100.389 1.38867C100.818 1.17057 101.297 1.0013 101.824 0.880859ZM104.568 2.50195C104.246 2.33919 103.888 2.25781 103.494 2.25781C103.1 2.25781 102.741 2.33919 102.415 2.50195C102.093 2.66146 101.818 2.88281 101.59 3.16602C101.365 3.44922 101.175 3.78939 101.019 4.18652C100.862 4.5804 100.747 5.00846 100.672 5.4707C100.6 5.93294 100.564 6.42448 100.564 6.94531C100.564 7.59635 100.626 8.20345 100.75 8.7666C100.877 9.3265 101.059 9.82129 101.297 10.251C101.535 10.6807 101.84 11.0192 102.215 11.2666C102.592 11.5107 103.019 11.6328 103.494 11.6328C103.969 11.6328 104.394 11.5107 104.769 11.2666C105.146 11.0192 105.454 10.6807 105.691 10.251C105.929 9.82129 106.11 9.3265 106.233 8.7666C106.36 8.20345 106.424 7.59635 106.424 6.94531C106.424 6.42448 106.386 5.93294 106.312 5.4707C106.24 5.00846 106.126 4.5804 105.97 4.18652C105.813 3.78939 105.621 3.44922 105.394 3.16602C105.169 2.88281 104.894 2.66146 104.568 2.50195ZM110.721 0.890625H115.066L120.096 6.80859V2.45312H118.533V0.890625H123.611V2.45312H122.049V13H120.877L114.236 5.1875V11.4375H115.799V13H110.721V11.4375H112.283V2.45312H110.721V0.890625ZM129.178 0.890625H131.326L135.999 11.4375H137.186V13H130.936V11.4375H132.498L131.805 9.875H127.391L126.741 11.4375H129.764V13H123.514V11.4375H124.788L129.178 0.890625ZM128.04 8.3125H131.111L129.9 5.57812C129.744 5.22005 129.62 4.86849 129.529 4.52344C129.402 4.97266 129.285 5.32422 129.178 5.57812L128.04 8.3125ZM138.162 0.890625H144.803V2.45312H142.85V11.4375H145.975C146.111 11.4375 146.233 11.3854 146.341 11.2812C146.448 11.1738 146.53 11.0371 146.585 10.8711C146.644 10.7051 146.686 10.5374 146.712 10.3682C146.741 10.1989 146.756 10.0345 146.756 9.875V8.3125H148.514V13H138.162V11.4375H139.725V2.45312H138.162V0.890625ZM155.154 0.890625H161.795V2.45312H159.842V11.4375H162.967C163.104 11.4375 163.226 11.3854 163.333 11.2812C163.44 11.1738 163.522 11.0371 163.577 10.8711C163.636 10.7051 163.678 10.5374 163.704 10.3682C163.733 10.1989 163.748 10.0345 163.748 9.875V8.3125H165.506V13H155.154V11.4375H156.717V2.45312H155.154V0.890625ZM166.873 0.890625H173.123V2.45312H171.561V11.4375H173.123V13H166.873V11.4375H168.436V2.45312H166.873V0.890625ZM174.197 0.890625H185.525V4.79688H183.768V4.01562C183.768 3.85612 183.753 3.69173 183.724 3.52246C183.698 3.35319 183.655 3.18555 183.597 3.01953C183.541 2.85352 183.46 2.71842 183.353 2.61426C183.245 2.50684 183.123 2.45312 182.986 2.45312H181.424V11.4375H182.986V13H176.736V11.4375H178.299V2.45312H176.736C176.6 2.45312 176.478 2.50684 176.37 2.61426C176.263 2.71842 176.18 2.85352 176.121 3.01953C176.066 3.18555 176.023 3.35319 175.994 3.52246C175.968 3.69173 175.955 3.85612 175.955 4.01562V4.79688H174.197V0.890625ZM186.6 0.890625H197.146V4.79688H195.389V4.01562C195.389 3.85612 195.374 3.69173 195.345 3.52246C195.319 3.35319 195.276 3.18555 195.218 3.01953C195.162 2.85352 195.081 2.71842 194.974 2.61426C194.866 2.50684 194.744 2.45312 194.607 2.45312H191.287V6.75H193.045V4.99219H194.607V10.0703H193.045V8.3125H191.287V11.4375H194.803C194.939 11.4375 195.062 11.3854 195.169 11.2812C195.276 11.1738 195.358 11.0371 195.413 10.8711C195.472 10.7051 195.514 10.5374 195.54 10.3682C195.569 10.1989 195.584 10.0345 195.584 9.875V9.09375H197.342V13H186.6V11.4375H188.162V2.45312H186.6V0.890625ZM198.709 13V11.4375H200.271V2.45312H198.709V0.890625H203.787C204.969 0.890625 205.895 0.92806 206.565 1.00293C207.239 1.0778 207.763 1.19499 208.138 1.35449C208.515 1.51074 208.862 1.74674 209.178 2.0625C209.461 2.3457 209.674 2.70215 209.817 3.13184C209.964 3.55827 210.037 4.01562 210.037 4.50391C210.037 6.02409 209.303 7.09505 207.835 7.7168C208.372 8.17578 208.715 8.89518 208.865 9.875C208.882 9.97917 208.901 10.1143 208.924 10.2803C208.947 10.443 208.965 10.57 208.978 10.6611C208.991 10.749 209.008 10.8548 209.031 10.9785C209.054 11.099 209.075 11.1917 209.095 11.2568C209.114 11.3219 209.139 11.387 209.168 11.4521C209.197 11.5173 209.23 11.5645 209.266 11.5938C209.305 11.6198 209.347 11.6328 209.393 11.6328C209.493 11.6328 209.58 11.5872 209.651 11.4961C209.726 11.4049 209.786 11.2699 209.832 11.0908C209.878 10.9085 209.912 10.7425 209.935 10.5928C209.957 10.443 209.983 10.2477 210.013 10.0068C210.019 9.94824 210.024 9.9043 210.027 9.875L211.404 10.0166C211.372 10.3324 211.342 10.5781 211.316 10.7539C211.294 10.9297 211.255 11.1478 211.199 11.4082C211.144 11.6686 211.08 11.8704 211.009 12.0137C210.937 12.1569 210.838 12.3164 210.711 12.4922C210.587 12.6647 210.442 12.7949 210.276 12.8828C210.11 12.9674 209.905 13.0407 209.661 13.1025C209.42 13.1644 209.147 13.1953 208.841 13.1953C208.619 13.1953 208.416 13.1855 208.23 13.166C208.045 13.1465 207.872 13.1139 207.713 13.0684C207.557 13.0228 207.413 12.9723 207.283 12.917C207.153 12.8617 207.031 12.7868 206.917 12.6924C206.803 12.598 206.701 12.5036 206.609 12.4092C206.521 12.3115 206.435 12.1895 206.351 12.043C206.266 11.8965 206.191 11.7549 206.126 11.6182C206.064 11.4782 205.997 11.3089 205.926 11.1104C205.854 10.9085 205.791 10.7165 205.735 10.5342C205.68 10.3519 205.617 10.1322 205.545 9.875C205.457 9.5625 205.374 9.31673 205.296 9.1377C205.221 8.9554 205.125 8.79753 205.008 8.66406C204.891 8.5306 204.751 8.43945 204.588 8.39062C204.428 8.33854 204.227 8.3125 203.982 8.3125H203.396V11.4375H204.959V13H198.709ZM203.396 6.75H204.178C205.74 6.75 206.521 6.03385 206.521 4.60156C206.521 4.35417 206.504 4.12956 206.468 3.92773C206.435 3.72591 206.373 3.5306 206.282 3.3418C206.191 3.15299 206.074 2.99512 205.931 2.86816C205.787 2.74121 205.6 2.6403 205.369 2.56543C205.138 2.49056 204.871 2.45312 204.568 2.45312H203.396V6.75ZM217.557 0.890625H219.705L224.378 11.4375H225.564V13H219.314V11.4375H220.877L220.184 9.875H215.77L215.12 11.4375H218.143V13H211.893V11.4375H213.167L217.557 0.890625ZM216.419 8.3125H219.49L218.279 5.57812C218.123 5.22005 217.999 4.86849 217.908 4.52344C217.781 4.97266 217.664 5.32422 217.557 5.57812L216.419 8.3125ZM231.912 0.695312C233.621 0.695312 234.988 1.15104 236.014 2.0625C236.434 2.43359 236.733 2.80794 236.912 3.18555C237.094 3.5599 237.186 4.0319 237.186 4.60156C237.186 5.03451 237.033 5.40397 236.727 5.70996C236.424 6.0127 236.056 6.16406 235.623 6.16406C235.19 6.16406 234.821 6.0127 234.515 5.70996C234.212 5.40397 234.061 5.03451 234.061 4.60156C234.061 4.38021 234.104 4.17188 234.192 3.97656C234.28 3.77799 234.402 3.60547 234.559 3.45898C234.324 3.02279 234.007 2.71354 233.606 2.53125C233.209 2.34896 232.71 2.25781 232.107 2.25781C231.714 2.25781 231.347 2.33757 231.009 2.49707C230.674 2.65658 230.382 2.87956 230.135 3.16602C229.891 3.45247 229.681 3.79102 229.505 4.18164C229.329 4.57227 229.197 5.00195 229.109 5.4707C229.025 5.9362 228.982 6.42773 228.982 6.94531C228.982 7.45638 229.035 7.94792 229.139 8.41992C229.243 8.89193 229.394 9.32161 229.593 9.70898C229.791 10.0964 230.024 10.4349 230.291 10.7246C230.558 11.0111 230.864 11.234 231.209 11.3936C231.557 11.5531 231.922 11.6328 232.303 11.6328C232.856 11.6328 233.37 11.4847 233.846 11.1885C234.324 10.8923 234.72 10.4772 235.032 9.94336C235.348 9.40625 235.545 8.79753 235.623 8.11719L237.186 8.50781C237.107 8.88867 237.016 9.24349 236.912 9.57227C236.808 9.89779 236.678 10.2233 236.521 10.5488C236.365 10.8711 236.188 11.1624 235.989 11.4229C235.791 11.6833 235.556 11.9258 235.286 12.1504C235.016 12.375 234.718 12.5638 234.393 12.7168C234.067 12.8665 233.694 12.9837 233.274 13.0684C232.854 13.153 232.4 13.1953 231.912 13.1953C231.329 13.1953 230.773 13.1335 230.242 13.0098C229.715 12.8893 229.236 12.7201 228.807 12.502C228.38 12.2839 227.986 12.0234 227.625 11.7207C227.264 11.418 226.951 11.0843 226.688 10.7197C226.424 10.3519 226.199 9.96289 226.014 9.55273C225.831 9.13932 225.695 8.71452 225.604 8.27832C225.512 7.83887 225.467 7.39453 225.467 6.94531C225.467 6.49609 225.512 6.05339 225.604 5.61719C225.695 5.17773 225.831 4.75293 226.014 4.34277C226.199 3.92936 226.424 3.54036 226.688 3.17578C226.951 2.80794 227.264 2.47266 227.625 2.16992C227.986 1.86719 228.38 1.60677 228.807 1.38867C229.236 1.17057 229.715 1.0013 230.242 0.880859C230.773 0.757161 231.329 0.695312 231.912 0.695312ZM245.779 0.890625H251.053V2.45312H249.686L245.955 7.58496V11.4375H247.518V13H241.268V11.4375H242.83V7.52637L239.139 2.45312H237.967V0.890625H244.217V2.45312H243.001L245.374 5.71973L247.752 2.45312H245.779V0.890625ZM262.771 0.890625H264.92L269.593 11.4375H270.779V13H264.529V11.4375H266.092L265.398 9.875H260.984L260.335 11.4375H263.357V13H257.107V11.4375H258.382L262.771 0.890625ZM261.634 8.3125H264.705L263.494 5.57812C263.338 5.22005 263.214 4.86849 263.123 4.52344C262.996 4.97266 262.879 5.32422 262.771 5.57812L261.634 8.3125ZM271.756 0.890625H276.102L281.131 6.80859V2.45312H279.568V0.890625H284.646V2.45312H283.084V13H281.912L275.271 5.1875V11.4375H276.834V13H271.756V11.4375H273.318V2.45312H271.756V0.890625ZM291.971 13H285.721V11.4375H287.283V2.45312H285.721V0.890625H291.971C292.671 0.890625 293.331 0.96875 293.953 1.125C294.575 1.27799 295.125 1.49284 295.604 1.76953C296.085 2.04297 296.517 2.36849 296.897 2.74609C297.282 3.1237 297.597 3.53711 297.845 3.98633C298.095 4.43555 298.286 4.91081 298.416 5.41211C298.546 5.91016 298.611 6.42122 298.611 6.94531C298.611 7.4694 298.546 7.9821 298.416 8.4834C298.286 8.98145 298.095 9.45508 297.845 9.9043C297.597 10.3535 297.282 10.7669 296.897 11.1445C296.517 11.5221 296.085 11.8493 295.604 12.126C295.125 12.3994 294.575 12.6143 293.953 12.7705C293.331 12.9235 292.671 13 291.971 13ZM291.971 11.4375C292.479 11.4375 292.933 11.3252 293.333 11.1006C293.733 10.8727 294.061 10.557 294.314 10.1533C294.572 9.74967 294.765 9.27767 294.896 8.7373C295.029 8.19368 295.096 7.59635 295.096 6.94531C295.096 6.42448 295.057 5.93945 294.979 5.49023C294.9 5.04102 294.778 4.62923 294.612 4.25488C294.446 3.87728 294.241 3.55664 293.997 3.29297C293.756 3.02604 293.463 2.81934 293.118 2.67285C292.773 2.52637 292.391 2.45312 291.971 2.45312H290.408V11.4375H291.971ZM304.959 0.890625H309.305L314.334 6.80859V2.45312H312.771V0.890625H317.85V2.45312H316.287V13H315.115L308.475 5.1875V11.4375H310.037V13H304.959V11.4375H306.521V2.45312H304.959V0.890625ZM326.346 0.890625H331.424V2.45312H329.861V8.89844C329.861 9.34115 329.814 9.76595 329.72 10.1729C329.625 10.5798 329.471 10.9688 329.256 11.3398C329.044 11.7077 328.782 12.0283 328.47 12.3018C328.16 12.5752 327.773 12.7933 327.308 12.9561C326.842 13.1156 326.326 13.1953 325.76 13.1953C324.529 13.1953 323.523 13.0212 322.742 12.6729C321.961 12.3213 321.39 11.8037 321.028 11.1201C320.667 10.4333 320.486 9.5625 320.486 8.50781V2.45312H318.924V0.890625H325.174V2.45312H323.611V8.50781C323.611 8.86263 323.637 9.18978 323.689 9.48926C323.745 9.78874 323.816 10.0443 323.904 10.2559C323.992 10.4642 324.1 10.6514 324.227 10.8174C324.354 10.9801 324.485 11.112 324.622 11.2129C324.759 11.3138 324.905 11.3968 325.062 11.4619C325.221 11.527 325.372 11.5726 325.516 11.5986C325.659 11.6214 325.805 11.6328 325.955 11.6328C326.336 11.6328 326.676 11.5645 326.976 11.4277C327.278 11.2878 327.524 11.0957 327.713 10.8516C327.905 10.6042 328.05 10.3161 328.147 9.9873C328.248 9.65527 328.299 9.29232 328.299 8.89844V2.45312H326.346V0.890625ZM332.596 0.890625H337.674L340.691 6.61328L343.548 0.890625H348.221V2.45312H346.658V11.4375H348.221V13H341.971V11.4375H343.533V4.3916L340.408 10.6562H339.432L336.111 4.36719V11.4375H337.674V13H332.596V11.4375H334.158V2.45312H332.596V0.890625ZM349.393 0.890625H359.939V4.79688H358.182V4.01562C358.182 3.85612 358.167 3.69173 358.138 3.52246C358.112 3.35319 358.069 3.18555 358.011 3.01953C357.955 2.85352 357.874 2.71842 357.767 2.61426C357.659 2.50684 357.537 2.45312 357.4 2.45312H354.08V6.75H355.838V4.99219H357.4V10.0703H355.838V8.3125H354.08V11.4375H357.596C357.732 11.4375 357.854 11.3854 357.962 11.2812C358.069 11.1738 358.151 11.0371 358.206 10.8711C358.265 10.7051 358.307 10.5374 358.333 10.3682C358.362 10.1989 358.377 10.0345 358.377 9.875V9.09375H360.135V13H349.393V11.4375H350.955V2.45312H349.393V0.890625ZM361.502 13V11.4375H363.064V2.45312H361.502V0.890625H366.58C367.762 0.890625 368.688 0.92806 369.358 1.00293C370.032 1.0778 370.556 1.19499 370.931 1.35449C371.308 1.51074 371.655 1.74674 371.971 2.0625C372.254 2.3457 372.467 2.70215 372.61 3.13184C372.757 3.55827 372.83 4.01562 372.83 4.50391C372.83 6.02409 372.096 7.09505 370.628 7.7168C371.165 8.17578 371.508 8.89518 371.658 9.875C371.674 9.97917 371.694 10.1143 371.717 10.2803C371.74 10.443 371.757 10.57 371.771 10.6611C371.784 10.749 371.801 10.8548 371.824 10.9785C371.847 11.099 371.868 11.1917 371.888 11.2568C371.907 11.3219 371.932 11.387 371.961 11.4521C371.99 11.5173 372.023 11.5645 372.059 11.5938C372.098 11.6198 372.14 11.6328 372.186 11.6328C372.286 11.6328 372.373 11.5872 372.444 11.4961C372.519 11.4049 372.579 11.2699 372.625 11.0908C372.671 10.9085 372.705 10.7425 372.728 10.5928C372.75 10.443 372.776 10.2477 372.806 10.0068C372.812 9.94824 372.817 9.9043 372.82 9.875L374.197 10.0166C374.165 10.3324 374.135 10.5781 374.109 10.7539C374.087 10.9297 374.048 11.1478 373.992 11.4082C373.937 11.6686 373.873 11.8704 373.802 12.0137C373.73 12.1569 373.631 12.3164 373.504 12.4922C373.38 12.6647 373.235 12.7949 373.069 12.8828C372.903 12.9674 372.698 13.0407 372.454 13.1025C372.213 13.1644 371.94 13.1953 371.634 13.1953C371.412 13.1953 371.209 13.1855 371.023 13.166C370.838 13.1465 370.665 13.1139 370.506 13.0684C370.35 13.0228 370.206 12.9723 370.076 12.917C369.946 12.8617 369.824 12.7868 369.71 12.6924C369.596 12.598 369.493 12.5036 369.402 12.4092C369.314 12.3115 369.228 12.1895 369.144 12.043C369.059 11.8965 368.984 11.7549 368.919 11.6182C368.857 11.4782 368.79 11.3089 368.719 11.1104C368.647 10.9085 368.584 10.7165 368.528 10.5342C368.473 10.3519 368.41 10.1322 368.338 9.875C368.25 9.5625 368.167 9.31673 368.089 9.1377C368.014 8.9554 367.918 8.79753 367.801 8.66406C367.684 8.5306 367.544 8.43945 367.381 8.39062C367.221 8.33854 367.02 8.3125 366.775 8.3125H366.189V11.4375H367.752V13H361.502ZM366.189 6.75H366.971C368.533 6.75 369.314 6.03385 369.314 4.60156C369.314 4.35417 369.297 4.12956 369.261 3.92773C369.228 3.72591 369.166 3.5306 369.075 3.3418C368.984 3.15299 368.867 2.99512 368.724 2.86816C368.58 2.74121 368.393 2.6403 368.162 2.56543C367.931 2.49056 367.664 2.45312 367.361 2.45312H366.189V6.75ZM380.35 0.890625H382.498L387.171 11.4375H388.357V13H382.107V11.4375H383.67L382.977 9.875H378.562L377.913 11.4375H380.936V13H374.686V11.4375H375.96L380.35 0.890625ZM379.212 8.3125H382.283L381.072 5.57812C380.916 5.22005 380.792 4.86849 380.701 4.52344C380.574 4.97266 380.457 5.32422 380.35 5.57812L379.212 8.3125ZM394.705 0.695312C396.414 0.695312 397.781 1.15104 398.807 2.0625C399.227 2.43359 399.526 2.80794 399.705 3.18555C399.887 3.5599 399.979 4.0319 399.979 4.60156C399.979 5.03451 399.826 5.40397 399.52 5.70996C399.217 6.0127 398.849 6.16406 398.416 6.16406C397.983 6.16406 397.614 6.0127 397.308 5.70996C397.005 5.40397 396.854 5.03451 396.854 4.60156C396.854 4.38021 396.897 4.17188 396.985 3.97656C397.073 3.77799 397.195 3.60547 397.352 3.45898C397.117 3.02279 396.8 2.71354 396.399 2.53125C396.002 2.34896 395.503 2.25781 394.9 2.25781C394.507 2.25781 394.14 2.33757 393.802 2.49707C393.466 2.65658 393.175 2.87956 392.928 3.16602C392.684 3.45247 392.474 3.79102 392.298 4.18164C392.122 4.57227 391.99 5.00195 391.902 5.4707C391.818 5.9362 391.775 6.42773 391.775 6.94531C391.775 7.45638 391.827 7.94792 391.932 8.41992C392.036 8.89193 392.187 9.32161 392.386 9.70898C392.584 10.0964 392.817 10.4349 393.084 10.7246C393.351 11.0111 393.657 11.234 394.002 11.3936C394.35 11.5531 394.715 11.6328 395.096 11.6328C395.649 11.6328 396.163 11.4847 396.639 11.1885C397.117 10.8923 397.513 10.4772 397.825 9.94336C398.141 9.40625 398.338 8.79753 398.416 8.11719L399.979 8.50781C399.9 8.88867 399.809 9.24349 399.705 9.57227C399.601 9.89779 399.471 10.2233 399.314 10.5488C399.158 10.8711 398.981 11.1624 398.782 11.4229C398.584 11.6833 398.349 11.9258 398.079 12.1504C397.809 12.375 397.511 12.5638 397.186 12.7168C396.86 12.8665 396.487 12.9837 396.067 13.0684C395.647 13.153 395.193 13.1953 394.705 13.1953C394.122 13.1953 393.566 13.1335 393.035 13.0098C392.508 12.8893 392.029 12.7201 391.6 12.502C391.173 12.2839 390.779 12.0234 390.418 11.7207C390.057 11.418 389.744 11.0843 389.48 10.7197C389.217 10.3519 388.992 9.96289 388.807 9.55273C388.624 9.13932 388.488 8.71452 388.396 8.27832C388.305 7.83887 388.26 7.39453 388.26 6.94531C388.26 6.49609 388.305 6.05339 388.396 5.61719C388.488 5.17773 388.624 4.75293 388.807 4.34277C388.992 3.92936 389.217 3.54036 389.48 3.17578C389.744 2.80794 390.057 2.47266 390.418 2.16992C390.779 1.86719 391.173 1.60677 391.6 1.38867C392.029 1.17057 392.508 1.0013 393.035 0.880859C393.566 0.757161 394.122 0.695312 394.705 0.695312ZM408.572 0.890625H413.846V2.45312H412.479L408.748 7.58496V11.4375H410.311V13H404.061V11.4375H405.623V7.52637L401.932 2.45312H400.76V0.890625H407.01V2.45312H405.794L408.167 5.71973L410.545 2.45312H408.572V0.890625Z" fill="url(#paint0_linear_239_4568)"/>
<defs>
<linearGradient id="paint0_linear_239_4568" x1="-8" y1="9.5" x2="427" y2="9.5" gradientUnits="userSpaceOnUse">
<stop offset="0.569" stop-color="#4880FF"/>
<stop offset="1" stop-color="#4880FF"/>
<stop offset="1"/>
</linearGradient>
</defs>
</svg>
